<svg width="44" height="43" viewBox="0 0 44 43" fill="none" xmlns="http://www.w3.org/2000/svg">
<g id="Iconly/Bold/Chart">
<g id="Chart">
<path id="Vector" d="M32.12 -0.000244141C39.5671 -0.000244141 43.7712 4.14711 43.7931 11.4593V31.5403C43.7931 38.8503 39.5671 42.9998 32.12 42.9998H11.6709C4.22384 42.9998 0 38.8503 0 31.5403V11.4593C0 4.14711 4.22384 -0.000244141 11.6709 -0.000244141H32.12ZM22.9914 8.87926C22.3761 8.51376 21.6316 8.51376 21.0426 8.87926C20.4492 9.24261 20.1229 9.91126 20.1864 10.5778V32.4863C20.2981 33.4108 21.0842 34.0988 22.0038 34.0988C22.9476 34.0988 23.7337 33.4108 23.8213 32.4863V10.5778C23.9088 9.91126 23.5826 9.24261 22.9914 8.87926ZM12.7657 15.9313C12.1745 15.5658 11.4278 15.5658 10.8388 15.9313C10.2454 16.2968 9.91914 16.9611 9.98483 17.6298V32.4863C10.0702 33.4108 10.8585 34.0988 11.8 34.0988C12.7438 34.0988 13.5299 33.4108 13.6175 32.4863V17.6298C13.6853 16.9611 13.3547 16.2968 12.7657 15.9313ZM33.0397 23.7358C32.4507 23.3703 31.7062 23.3703 31.0931 23.7358C30.4997 24.1013 30.1734 24.7441 30.261 25.4343V32.4863C30.3486 33.4108 31.1347 34.0988 32.0784 34.0988C32.9981 34.0988 33.7842 33.4108 33.8959 32.4863V25.4343C33.9594 24.7441 33.6331 24.1013 33.0397 23.7358Z" fill="#058E6E"/>
</g>
</g>
</svg>
