<svg width="18" height="18" viewBox="0 0 18 18" fill="none" xmlns="http://www.w3.org/2000/svg">
<g id="Heart">
<g id="Iconly/Bold/Heart">
<g id="Heart_2">
<path id="Vector" d="M6.20977 1.87548C6.68227 1.88985 7.13977 1.97235 7.58302 2.1231H7.62727C7.65727 2.13735 7.67977 2.1531 7.69477 2.16735C7.86052 2.2206 8.01727 2.2806 8.16727 2.3631L8.45227 2.4906C8.56477 2.5506 8.69977 2.66235 8.77477 2.7081C8.84977 2.75235 8.93227 2.7981 8.99977 2.84985C9.83302 2.2131 10.8448 1.8681 11.8873 1.87548C12.3605 1.87548 12.833 1.94235 13.2823 2.0931C16.0505 2.9931 17.048 6.0306 16.2148 8.6856C15.7423 10.0424 14.9698 11.2806 13.958 12.2924C12.5098 13.6949 10.9205 14.9399 9.20977 16.0124L9.02227 16.1256L8.82727 16.0049C7.11052 14.9399 5.51227 13.6949 4.05052 12.2849C3.04552 11.2731 2.27227 10.0424 1.79227 8.6856C0.944768 6.0306 1.94227 2.9931 4.74052 2.07735C4.95802 2.00235 5.18227 1.94985 5.40727 1.9206H5.49727C5.70802 1.88985 5.91727 1.87548 6.12727 1.87548H6.20977ZM12.8923 4.2456C12.5848 4.13985 12.2473 4.3056 12.1348 4.6206C12.0298 4.9356 12.1948 5.2806 12.5098 5.39235C12.9905 5.57235 13.3123 6.0456 13.3123 6.56985V6.5931C13.298 6.76485 13.3498 6.9306 13.4548 7.0581C13.5598 7.1856 13.7173 7.25985 13.8823 7.2756C14.1898 7.26735 14.4523 7.0206 14.4748 6.70485V6.6156C14.4973 5.56485 13.8605 4.6131 12.8923 4.2456Z" fill="#FB9C46"/>
</g>
</g>
</g>
</svg>
